<svg xmlns="http://www.w3.org/2000/svg" width="75" height="75" viewBox="0 0 75 75">
    <g fill="none">
        <path fill="#5A5A5A" d="M73.17 73.869H1.83c-.405 0-.732-.328-.732-.732v-3.5c0-.403.327-.731.731-.731h71.342c.404 0 .731.328.731.732v3.5c0 .403-.327.731-.731.731z"/>
        <path fill="#8AC9FE" d="M17.392 68.906H4.772v-14.94c0-.404.327-.732.731-.732H16.66c.404 0 .732.328.732.732v14.94z"/>
        <path fill="#60B7FF" d="M17.391 53.966v14.94h-3.574v-14.94c0-.405-.328-.732-.732-.732h3.575c.404 0 .731.327.731.732z"/>
        <path fill="#FB2B3A" d="M52.616 68.906h-12.62V32.383c0-.404.328-.732.732-.732h11.156c.404 0 .732.328.732.732v36.523z"/>
        <path fill="#E41F2D" d="M52.616 32.383v36.523H49.04V32.383c0-.405-.328-.731-.732-.731h3.575c.404 0 .732.326.732.731z"/>
        <path fill="#FEC165" d="M70.228 68.906h-12.62V18.872c0-.404.328-.732.732-.732h11.157c.404 0 .731.328.731.732v50.034z"/>
        <path fill="#FDB441" d="M70.228 18.873v50.033h-3.575V18.873c0-.406-.328-.732-.731-.732h3.574c.404 0 .732.326.732.732z"/>
        <path fill="#00C27A" d="M35.004 68.906h-12.62V40.47c0-.404.328-.732.732-.732h11.156c.404 0 .732.328.732.732v28.435z"/>
        <path fill="#08B865" d="M35.004 40.471v28.435h-3.575V40.47c0-.405-.328-.731-.732-.731h3.575c.404 0 .732.326.732.731z"/>
        <path fill="#8AC9FE" d="M55.075 1.17l-8.009 1.414c-1.338.236-2.286 1.532-2.105 2.88.196 1.46 1.544 2.446 2.995 2.19l1.381-.244-6.305 9.942c-.498.787-1.54 1.02-2.328.52L29.81 12.187c-1.358-.862-3.158-.46-4.02.9l-9.863 14.779c-.832 1.31-.444 3.047.867 3.878 1.31.831 3.047.443 3.878-.868l7.505-11.073c.498-.786 1.54-1.02 2.327-.52l10.9 5.69c1.36.862 3.16.46 4.022-.9l8.666-13.665.31 1.76c.248 1.4 1.583 2.334 2.982 2.087 1.4-.247 2.335-1.583 2.087-2.982l-1.415-8.014c-.247-1.4-1.582-2.334-2.981-2.087z"/>
        <path fill="#60B7FF" d="M59.472 11.272l-1.415-8.014c-.247-1.4-1.583-2.334-2.983-2.087l-.128.022c.246.976.55 1.94.663 2.946.114 1.02.749 2.85-.398 3.512-.702.406-1.51-.039-2.238.419-.64.402-.986.998-1.383 1.623-.98 1.542-1.956 3.083-2.932 4.623-1.407 2.218-2.731 4.492-4.221 6.657-1.05 1.525-1.922 1.683-4.022.521l-10.901-5.69c-.786-.5-1.83-.267-2.328.52l-7.504 11.452c-.832 1.31-2.567 1.699-3.878.868-.063-.041-.125-.082-.184-.128-.378 1.188.072 2.527 1.174 3.228.468.296.988.437 1.503.437.93 0 1.84-.462 2.375-1.305l7.504-11.074c.5-.786 1.542-1.019 2.328-.52l10.901 5.69c1.358.863 3.158.459 4.02-.9l8.667-13.666.31 1.76c.248 1.4 1.582 2.335 2.983 2.088 1.249-.22 2.127-1.308 2.127-2.533 0-.148-.013-.299-.04-.45z"/>
        <path fill="#000" d="M73.17 67.808h-1.844V18.872c0-1.009-.82-1.83-1.83-1.83H58.34c-1.008 0-1.829.821-1.829 1.83v48.936h-2.797v-6.212c0-.606-.492-1.097-1.098-1.097-.606 0-1.097.491-1.097 1.097v6.212H41.094v-35.06h10.425v23.739c0 .606.49 1.097 1.097 1.097.606 0 1.098-.491 1.098-1.097V32.383c0-1.009-.82-1.83-1.83-1.83H40.728c-1.009 0-1.83.821-1.83 1.83v35.425h-2.797V40.471c0-1.009-.82-1.83-1.829-1.83H23.116c-1.009 0-1.83.821-1.83 1.83v27.337H18.49V53.966c0-1.01-.82-1.83-1.829-1.83H5.503c-1.008 0-1.829.82-1.829 1.83v13.842H1.83c-1.009 0-1.829.82-1.829 1.83v3.5c0 1.008.82 1.828 1.83 1.828h71.34c1.01 0 1.83-.82 1.83-1.829v-3.5c0-1.008-.82-1.829-1.83-1.829zm-14.464-48.57h10.425v48.57H58.706v-48.57zM23.482 40.836h10.424v26.972H23.482V40.836zM5.869 54.331h10.425v13.477H5.869V54.331zm66.936 18.44H2.195v-2.768h70.61v2.768z"/>
        <path fill="#000" d="M16.207 32.67c.633.402 1.352.61 2.085.61.286 0 .575-.033.86-.096 1.013-.227 1.878-.832 2.437-1.705l7.496-11.06.018-.029c.175-.274.54-.356.814-.182.026.017.052.032.08.046l10.862 5.671c.896.554 1.953.732 2.983.501 1.045-.234 1.937-.861 2.51-1.766l7.243-11.42c.677 1.487 2.299 2.392 3.98 2.094.966-.17 1.808-.706 2.37-1.51.562-.803.778-1.777.607-2.743l-1.415-8.014c-.352-1.993-2.259-3.33-4.253-2.977l-8.009 1.413c-1.914.338-3.26 2.18-3.002 4.107.135 1.005.656 1.886 1.467 2.479.544.398 1.173.632 1.83.69l-.954 1.503c-.324.512-.173 1.19.34 1.515.51.324 1.19.173 1.514-.34l2.194-3.459c.233-.367.227-.837-.015-1.198s-.675-.546-1.103-.47l-1.38.243c-.406.072-.807-.02-1.131-.256-.324-.237-.532-.591-.587-.999-.102-.762.451-1.519 1.209-1.653l8.008-1.413c.802-.14 1.569.396 1.71 1.197l1.415 8.014c.069.388-.018.78-.244 1.103-.226.323-.564.539-.953.607-.8.142-1.568-.395-1.71-1.197l-.31-1.76c-.08-.446-.424-.798-.868-.885-.445-.088-.898.106-1.14.489l-8.667 13.665c-.26.41-.663.694-1.137.8-.473.105-.96.02-1.37-.239-.025-.017-.052-.032-.079-.046l-10.864-5.672c-1.286-.783-2.972-.398-3.789.871L19.763 30.26l-.019.028c-.245.387-.625.654-1.071.754-.447.1-.905.02-1.291-.225-.387-.245-.655-.625-.754-1.072-.1-.443-.022-.897.219-1.282l9.855-14.768.014-.021c.536-.845 1.66-1.097 2.506-.56.026.016.053.031.08.045l10.858 5.669c1.292.786 2.986.394 3.799-.888l1.366-2.154c.325-.512.173-1.19-.339-1.515-.512-.325-1.19-.173-1.515.34l-1.366 2.153c-.174.275-.538.357-.813.183-.026-.017-.053-.032-.08-.046l-10.856-5.668c-1.859-1.147-4.307-.59-5.486 1.253l-9.856 14.77-.014.021c-.56.882-.742 1.928-.514 2.947.228 1.018.84 1.887 1.72 2.446z"/>
    </g>
</svg>
