<svg xmlns="http://www.w3.org/2000/svg" width="41" height="75" viewBox="0 0 41 75">
    <g fill="none" fill-rule="evenodd">
        <path d="M0 0H75V75H0z" transform="translate(-17)"/>
        <g fill-rule="nonzero" transform="translate(-17) translate(17.763)">
            <path fill="#F6E266" d="M27.171 56.145s2.93 2.52 2.93 6.563c0 4.043-3.67 7.198-3.67 7.198l-1.183-1.924-5.18 5.92-5.179-5.92-1.183 1.924s-3.67-3.155-3.67-7.198c0-4.042 2.93-6.563 2.93-6.563H27.17z"/>
            <path fill="#F1D333" d="M27.358 56.32c.166.754.257 1.536.257 2.34 0 5.966-4.836 10.802-10.802 10.802-.218 0-.433-.008-.647-.02l3.902 4.46 5.18-5.92 1.183 1.924s3.67-3.155 3.67-7.198c0-3.421-2.098-5.752-2.743-6.388z"/>
            <path fill="#E49542" d="M22.584 56.145s1.924 1.923 1.924 5.03c0 3.7-4.44 5.624-4.44 5.624s-4.439-1.924-4.439-5.623c0-3.108 1.924-5.031 1.924-5.031h5.03z"/>
            <path fill="#DD5790" d="M27.171 37.648L27.171 56.145 39.009 56.145 39.009 44.455z"/>
            <path fill="#DA387D" d="M35.682 42.542l-8.511-4.894v18.497h3.827c.96-2.435 2.99-7.788 4.684-13.603z"/>
            <path fill="#DD5790" d="M12.966 37.648L12.966 56.145 1.128 56.145 1.128 44.455z"/>
            <path fill="#DA387D" d="M4.454 42.542l8.512-4.894v18.497H9.139c-.96-2.435-2.99-7.788-4.685-13.603z"/>
            <path fill="#ECF4FF" d="M27.171 56.145s7.695-18.645 7.695-28.411c0-18.645-14.798-26.635-14.798-26.635S5.271 9.089 5.271 27.734c0 9.766 7.695 28.41 7.695 28.41H27.17z"/>
            <path fill="#CBE2FF" d="M12.268 48.448c-.753 0-1.498-.043-2.232-.125 1.573 4.535 2.93 7.822 2.93 7.822H27.17s7.695-18.645 7.695-28.411c0-.919-.037-1.81-.106-2.677-1.099 13.126-10.749 23.391-22.492 23.391z"/>
            <path fill="#DD5790" d="M8.894 12.936h22.349C26.863 4.77 20.068 1.1 20.068 1.1s-6.793 3.67-11.174 11.837z"/>
            <circle cx="20.068" cy="30.841" r="8.878" fill="#DD5790"/>
            <path fill="#DA387D" d="M25.153 23.565c1.008 1.44 1.602 3.192 1.602 5.084 0 4.904-3.975 8.879-8.879 8.879-1.891 0-3.644-.594-5.084-1.602 1.605 2.293 4.265 3.794 7.276 3.794 4.904 0 8.879-3.975 8.879-8.879 0-3.011-1.501-5.67-3.794-7.276z"/>
            <circle cx="20.068" cy="30.841" r="4.143" fill="#9DC6FB"/>
            <g fill="#000">
                <path d="M39.556 43.502l-5.747-3.305c1.221-4.436 2.156-8.97 2.156-12.463 0-1.847-.144-3.678-.427-5.442-.096-.599-.658-1.006-1.26-.91-.598.096-1.006.66-.91 1.259.265 1.649.4 3.362.4 5.093 0 8.401-5.976 23.89-7.338 27.312H13.707c-.323-.809-.904-2.292-1.599-4.183-.209-.57-.84-.862-1.41-.653-.569.21-.861.84-.652 1.41.512 1.394.963 2.57 1.298 3.426H2.226V45.09l4.73-2.719c.415 1.395.876 2.854 1.384 4.378.153.46.582.752 1.042.752.115 0 .232-.018.347-.057.576-.192.887-.814.696-1.39-2.654-7.962-4.056-14.298-4.056-18.32 0-4.958 1.069-9.545 3.183-13.699h21.022c.6 1.18 1.147 2.448 1.61 3.814.155.458.582.746 1.04.746.117 0 .236-.019.353-.058.574-.195.882-.819.688-1.393C30.317 5.494 20.985.345 20.59.132c-.326-.176-.718-.176-1.044 0-.092.05-2.278 1.243-4.99 3.749-.445.411-.473 1.107-.061 1.552.412.446 1.107.473 1.552.061 1.743-1.61 3.26-2.639 4.021-3.117 1.489.935 5.861 3.989 9.267 9.46H10.793c.577-.926 1.21-1.829 1.898-2.707.375-.477.292-1.168-.186-1.542-.477-.375-1.168-.291-1.542.186-4.506 5.742-6.791 12.457-6.791 19.96 0 3.102.724 7.278 2.158 12.462L.58 43.502c-.34.196-.55.56-.55.953v11.69c0 .607.491 1.098 1.098 1.098h9.496c-.838 1.278-1.687 3.142-1.687 5.465 0 4.496 3.887 7.89 4.052 8.031.244.21.568.302.886.253.317-.05.598-.236.766-.51l.403-.654 4.198 4.797c.208.238.51.375.826.375.317 0 .619-.137.827-.375l4.198-4.798.402.655c.17.274.45.46.767.51.318.048.641-.043.885-.253.166-.142 4.052-3.535 4.052-8.03 0-2.324-.848-4.189-1.687-5.466h9.497c.607 0 1.099-.492 1.099-1.099v-11.69c0-.393-.21-.756-.552-.952zM23.41 61.176c0 2.315-2.35 3.849-3.343 4.394-.995-.542-3.338-2.064-3.338-4.394 0-1.923.88-3.332 1.335-3.933h4.01c.458.604 1.336 2.012 1.336 3.933zm3.219 6.954l-.445-.723c-.183-.298-.496-.49-.844-.52-.346-.028-.689.11-.919.372l-4.352 4.974-4.352-4.974c-.23-.263-.57-.4-.918-.371-.348.029-.662.221-.844.519l-.445.722c-.973-1.125-2.375-3.14-2.375-5.42 0-2.78 1.626-4.775 2.28-5.466h2.07c-.5.982-.954 2.317-.954 3.933 0 4.37 4.893 6.54 5.101 6.63.14.061.289.091.437.091.149 0 .298-.03.437-.09.208-.09 5.1-2.261 5.1-6.631 0-1.616-.452-2.95-.952-3.933h2.07c.656.693 2.279 2.688 2.279 5.465 0 2.28-1.401 4.297-2.374 5.422zM37.91 55.046h-9.115c.944-2.403 2.802-7.323 4.39-12.672l4.725 2.716v9.956z"/>
                <path d="M10.091 30.841c0 5.502 4.476 9.977 9.977 9.977 5.502 0 9.977-4.476 9.977-9.977s-4.475-9.977-9.977-9.977c-5.5 0-9.977 4.476-9.977 9.977zm17.757 0c0 4.29-3.49 7.78-7.78 7.78s-7.78-3.49-7.78-7.78 3.49-7.78 7.78-7.78 7.78 3.49 7.78 7.78z"/>
                <path d="M14.826 30.841c0 2.89 2.352 5.242 5.242 5.242s5.242-2.351 5.242-5.242c0-2.89-2.351-5.242-5.242-5.242-2.89 0-5.242 2.352-5.242 5.242zm8.287 0c0 1.679-1.366 3.045-3.045 3.045-1.678 0-3.044-1.366-3.044-3.045 0-1.679 1.366-3.044 3.044-3.044 1.68 0 3.045 1.365 3.045 3.044z"/>
            </g>
        </g>
    </g>
</svg>
