<svg xmlns="http://www.w3.org/2000/svg" width="75" height="75" viewBox="0 0 75 75">
    <g fill="none">
        <path fill="#FFE07D" d="M44.793 36.984c1.23-.906.926-2.821-.523-3.303-4.86-1.614-10.036-2.038-15.093-1.237l-2.41.382c-4.514.715-8.861 2.244-12.828 4.513l-1.215.694c-.11.063-.208.137-.296.22-.374.356-.256.98.214 1.192l.945.425c.283.127.343.502.113.71l-.767.696c-.382.346-.301.977.163 1.2.11.052.227.092.35.117l1.37.286c4.474.931 9.08 1.042 13.595.327l2.41-.381c5.057-.801 9.849-2.804 13.972-5.841z"/>
        <path fill="#D3EFFB" d="M73.56 47.434c-4.268.07-4.36 1.752-8.808 1.752-4.543 0-4.543-1.754-9.085-1.754-4.542 0-4.542 1.754-9.084 1.754s-4.542-1.754-9.084-1.754c-3.81 0-7.248-1.587-9.692-4.135-4.32.613-8.716.472-12.99-.418l-1.37-.286c-.124-.025-.24-.065-.35-.118-.465-.222-.546-.853-.164-1.199l.767-.696c.23-.208.17-.583-.112-.71l-.945-.425c-.47-.212-.588-.836-.215-1.192.088-.083.187-.157.296-.22l1.215-.694c3.177-1.817 6.596-3.159 10.15-3.989.335-6.971 5.983-12.532 12.957-12.762.785-.026 1.428-.66 1.432-1.445v-.02c0-2.073-1.981-2.073-1.981-4.147 0-2.073 1.981-2.073 1.981-4.147 0-2.074-1.981-2.074-1.981-4.147 0-1.25.719-1.746 1.29-2.397.733-.834.304-2.157-.776-2.414-2.124-.506-4.34-.774-6.618-.774-15.697 0-28.583 13.006-28.444 28.702.067 7.515 3.047 14.334 7.866 19.382-4.026-.106-4.25-1.68-8.376-1.747-.15-.003-.275.118-.275.27v25.93c0 .149.12.27.27.27h72.133c.149 0 .27-.121.27-.27v-25.93c0-.152-.126-.272-.276-.27z"/>
        <path fill="#B1E4F9" d="M73.56 47.434c-2.889.047-3.864.833-5.573 1.336v10.09c0 6.693-5.425 12.12-12.118 12.12H1.164v2.654c0 .149.12.27.269.27h72.134c.149 0 .27-.121.27-.27v-25.93c0-.152-.126-.272-.276-.27z"/>
        <path fill="#000" d="M46.582 59.089c4.726 0 4.876-1.755 9.084-1.755 4.237 0 4.315 1.755 9.084 1.755.606 0 1.097-.491 1.097-1.097s-.491-1.097-1.097-1.097c-4.237 0-4.315-1.754-9.084-1.754-4.726 0-4.875 1.754-9.084 1.754-4.236 0-4.314-1.754-9.083-1.754-.606 0-1.097.49-1.097 1.096 0 .606.49 1.097 1.097 1.097 4.254 0 4.311 1.755 9.083 1.755zM28.415 65.7c-4.237 0-4.315-1.754-9.084-1.754-4.725 0-4.88 1.755-9.085 1.755-.606 0-1.097.49-1.097 1.096 0 .606.491 1.097 1.097 1.097 4.724 0 4.88-1.755 9.085-1.755 4.254 0 4.312 1.755 9.084 1.755 4.714 0 4.893-1.755 9.084-1.755 4.254 0 4.311 1.755 9.083 1.755.606 0 1.097-.49 1.097-1.097 0-.606-.49-1.096-1.097-1.096-4.236 0-4.314-1.755-9.083-1.755-2.476 0-3.784.505-4.937.951-1.07.413-2.08.804-4.147.804zM29.317 8.07c-1.549.077-3.624-1.1-5.634-.479-2.016.624-3.072 2.775-4.38 3.576-1.269.777-3.672.737-5.173 2.252-1.579 1.592-1.58 4.102-2.39 5.506-.838 1.45-3 2.699-3.564 4.843-.565 2.146.703 4.261.718 5.97.006.602.496 1.087 1.097 1.087.607 0 1.102-.495 1.097-1.107-.019-2.012-1.155-4.007-.791-5.392.367-1.396 2.345-2.58 3.342-4.304.987-1.709.999-4 2.048-5.059.95-.959 3.163-.946 4.762-1.926 1.615-.988 2.635-2.965 3.882-3.35 1.248-.387 3.194.67 5.096.573.605-.03 1.07-.546 1.04-1.15-.03-.605-.545-1.075-1.15-1.04zM26.976 16.517c-1.613.692-2.308 2.532-3.237 3.244-.91.697-2.856.874-3.972 2.264-1.174 1.463-.955 3.476-1.472 4.635-.246.553.002 1.202.556 1.448.552.246 1.2-.001 1.448-.555.648-1.456.486-3.291 1.18-4.155.626-.782 2.372-.96 3.595-1.897 1.214-.931 1.889-2.592 2.766-2.968.878-.376 2.252.266 3.79.026.599-.094 1.008-.654.915-1.253-.093-.598-.655-1.008-1.253-.914-1.163.18-2.707-.565-4.316.125zM17.148 39.67c.095.6.66 1.007 1.255.911l17.446-2.763c.598-.094 1.006-.656.912-1.254-.095-.599-.657-1.007-1.255-.912L18.06 38.415c-.599.095-1.007.657-.912 1.255z"/>
        <path fill="#000" d="M73.543 46.337c-4.48.073-4.642 1.753-8.792 1.753-4.236 0-4.315-1.755-9.084-1.755-4.714 0-4.893 1.755-9.084 1.755-4.255 0-4.313-1.755-9.084-1.755-2.63 0-5.121-.811-7.203-2.317l.696-.11c5.209-.825 10.206-2.914 14.451-6.041.9-.663 1.35-1.76 1.176-2.865-.175-1.104-.943-2.01-2.004-2.362-3.327-1.105-6.909-1.71-10.631-1.686-.606.004-1.094.498-1.09 1.103.004.594.481 1.09 1.103 1.09 3.376-.024 6.72.51 9.927 1.575.41.136.506.481.529.623.022.142.037.5-.31.756-3.965 2.92-8.63 4.87-13.493 5.64-3.859.612-2.763.432-3.02.473-7.423 1.05-12.84-.51-13.45-.588l.256-.233c.815-.738.606-2.072-.399-2.524l-.317-.142c.537-.253 5.5-3.596 13.218-4.818l2.117-.335c.598-.095 1.006-.657.912-1.255-.095-.598-.656-1.007-1.255-.911l-2.117.335c-.42.066-.838.14-1.255.22.958-5.682 5.865-10.085 11.742-10.28 1.39-.045 2.484-1.158 2.493-2.534v-.026c0-1.476-.748-2.26-1.295-2.831-.476-.498-.687-.743-.687-1.316 0-.573.21-.817.687-1.316.547-.571 1.295-1.354 1.295-2.831 0-1.477-.748-2.26-1.295-2.831-.476-.499-.687-.744-.687-1.317s.21-.817.687-1.316c.108-.112.219-.229.331-.357.599-.68.79-1.605.515-2.473-.278-.873-.974-1.52-1.861-1.731C35.104.289 32.794 0 30.393 0 21.802 0 13.629 3.79 7.97 10.4c-.393.46-.34 1.152.12 1.546.46.394 1.153.34 1.546-.12 5.242-6.122 12.807-9.633 20.757-9.633 2.15 0 4.292.25 6.363.744.185.044.254.184.28.263.024.076.047.225-.073.36-.545.622-1.563 1.395-1.563 3.121 0 1.477.748 2.26 1.294 2.832.477.498.687.743.687 1.316 0 .573-.21.818-.687 1.316-.546.572-1.294 1.355-1.294 2.831 0 1.477.748 2.26 1.294 2.831.477.499.687.743.688 1.311v.018c-.002.19-.168.35-.372.356-7.24.239-13.199 5.8-13.953 12.98-6.333 1.615-10.001 4.171-10.878 4.61-.183.104-.354.231-.507.377-.438.416-.638 1.022-.536 1.62.102.599.493 1.117 1.073 1.373l-.013.012c-.454.41-.672 1.019-.583 1.626.088.6.465 1.114 1.01 1.374.19.092.393.16.6.203.892.12 6.46 1.777 14.192.79 2.72 2.63 6.278 4.071 10.084 4.071 4.236 0 4.315 1.755 9.084 1.755 4.726 0 4.875-1.755 9.084-1.755 4.237 0 4.315 1.755 9.084 1.755 4.335 0 4.843-1.464 7.988-1.714v3.222c0 .605.491 1.096 1.097 1.096s1.097-.49 1.097-1.096v-4.088c0-.775-.641-1.38-1.39-1.366z"/>
        <path fill="#000" d="M73.836 55.812c-.606 0-1.097.49-1.097 1.096v15.899H2.261V48.569c1.354.108 2.15.416 3.05.763 1 .386 2.124.82 4.021.927 3.593 3.651 8.07 6.311 12.974 7.704.583.166 1.189-.172 1.355-.755.165-.583-.173-1.19-.756-1.355-11.303-3.21-19.749-13.575-19.86-26.063-.043-4.887 1.246-9.71 3.728-13.947.307-.522.131-1.194-.392-1.5-.522-.306-1.194-.131-1.5.392C2.198 19.314.805 24.526.852 29.809c.058 6.51 2.233 12.732 6.18 17.819-1.444-.477-2.67-1.243-5.575-1.29-.745-.017-1.39.588-1.39 1.365v25.931C.067 74.387.68 75 1.433 75h72.134c.753 0 1.366-.613 1.366-1.366V56.908c0-.605-.491-1.096-1.097-1.096z"/>
    </g>
</svg>
